<svg xmlns="http://www.w3.org/2000/svg" width="38.124" height="34.31" viewBox="0 0 38.124 34.31">
  <metadata><?xpacket begin="﻿" id="W5M0MpCehiHzreSzNTczkc9d"?>
<x:xmpmeta xmlns:x="adobe:ns:meta/" x:xmptk="Adobe XMP Core 5.6-c138 79.159824, 2016/09/14-01:09:01        ">
   <rdf:RDF xmlns:rdf="http://www.w3.org/1999/02/22-rdf-syntax-ns#">
      <rdf:Description rdf:about=""/>
   </rdf:RDF>
</x:xmpmeta>
                                                                                                    
                                                                                                    
                                                                                                    
                                                                                                    
                                                                                                    
                                                                                                    
                                                                                                    
                                                                                                    
                                                                                                    
                                                                                                    
                                                                                                    
                                                                                                    
                                                                                                    
                                                                                                    
                                                                                                    
                                                                                                    
                                                                                                    
                                                                                                    
                                                                                                    
                                                                                                    
                           
<?xpacket end="w"?></metadata>
<defs>
    <style>
      .cls-1 {
        fill: #f55259;
        fill-rule: evenodd;
      }
    </style>
  </defs>
  <path id="Rectangle_1176_copy_14" data-name="Rectangle 1176 copy 14" class="cls-1" d="M859.247,2179.64a0.68,0.68,0,1,1,.677-0.68,0.683,0.683,0,0,1-.677.68m0-2.55a1.87,1.87,0,1,0,1.871,1.87,1.873,1.873,0,0,0-1.871-1.87m17.876,8.88a0.041,0.041,0,0,1-.039.04H841.411a0.041,0.041,0,0,1-.04-0.04v-1.28a0.041,0.041,0,0,1,.04-0.04h35.673a0.041,0.041,0,0,1,.039.04v1.28Zm-26.848-11.09a1.941,1.941,0,0,1,1.2-1.8l2.83-1.18a16.27,16.27,0,0,0,1.238,1.37h-2.029a1.873,1.873,0,0,0-1.871,1.87v7.64a1.868,1.868,0,0,0,.127.68h-1.5v-8.58Zm1.688-7.02c0.034-4.54.517-7.7,1.52-9.94a6.246,6.246,0,0,1,11.528,0c1,2.24,1.486,5.4,1.52,9.94a0.248,0.248,0,0,1-.147.23,14.382,14.382,0,0,1-3.725,1.09v-0.59l0.9-.5a2.844,2.844,0,0,0,1.454-2.23l0.456-5.01a0.6,0.6,0,0,0-.407-0.62,3.285,3.285,0,0,1-1.874-1.87,0.591,0.591,0,0,0-.359-0.37,0.582,0.582,0,0,0-.514.04c-2.665,1.6-8.694,2.17-8.755,2.17a0.6,0.6,0,0,0-.54.65l0.455,5.01a2.844,2.844,0,0,0,1.454,2.23l0.9,0.5v0.59a14.37,14.37,0,0,1-3.725-1.09,0.248,0.248,0,0,1-.147-0.23m8.088,0.82a1.7,1.7,0,0,1-1.608,0l-2.931-1.63a1.657,1.657,0,0,1-.844-1.3l-0.4-4.42a28.7,28.7,0,0,0,8.087-1.96,4.293,4.293,0,0,0,1.888,1.81l-0.415,4.57a1.657,1.657,0,0,1-.844,1.3Zm-4.594,2.74,0.512-.21a1.727,1.727,0,0,0,1.06-1.59v-0.36l0.834,0.46a2.84,2.84,0,0,0,2.768,0l0.833-.46v0.36a1.728,1.728,0,0,0,1.061,1.59l0.512,0.21a13.632,13.632,0,0,1-1.885,1.85h-3.81a13.632,13.632,0,0,1-1.885-1.85m-2.62,11.36v-7.64a0.676,0.676,0,0,1,.677-0.68H864.98a0.676,0.676,0,0,1,.677.68v7.64a0.676,0.676,0,0,1-.677.68H853.514a0.676,0.676,0,0,1-.677-0.68m15.383-7.9v8.58h-1.5a1.868,1.868,0,0,0,.127-0.68v-7.64a1.873,1.873,0,0,0-1.871-1.87h-2.029a16.27,16.27,0,0,0,1.238-1.37l2.831,1.18a1.941,1.941,0,0,1,1.2,1.8m8.864,8.58h-7.67v-8.58a3.136,3.136,0,0,0-1.935-2.9l-4.1-1.71a15.11,15.11,0,0,0,3.512-1.1,1.44,1.44,0,0,0,.836-1.32c-0.034-4.71-.551-8.03-1.624-10.42a7.437,7.437,0,0,0-13.707,0c-1.074,2.39-1.59,5.71-1.625,10.42a1.443,1.443,0,0,0,.836,1.32,15.11,15.11,0,0,0,3.512,1.1l-4.1,1.71a3.137,3.137,0,0,0-1.935,2.9v8.58h-7.669a1.232,1.232,0,0,0-1.234,1.23v1.28a1.232,1.232,0,0,0,1.234,1.23h35.673a1.233,1.233,0,0,0,1.234-1.23v-1.28a1.233,1.233,0,0,0-1.234-1.23" transform="translate(-840.188 -2152.88)"/>
</svg>
