<svg xmlns="http://www.w3.org/2000/svg" width="38.125" height="32.41" viewBox="0 0 38.125 32.41">
  <metadata><?xpacket begin="﻿" id="W5M0MpCehiHzreSzNTczkc9d"?>
<x:xmpmeta xmlns:x="adobe:ns:meta/" x:xmptk="Adobe XMP Core 5.6-c138 79.159824, 2016/09/14-01:09:01        ">
   <rdf:RDF xmlns:rdf="http://www.w3.org/1999/02/22-rdf-syntax-ns#">
      <rdf:Description rdf:about=""/>
   </rdf:RDF>
</x:xmpmeta>
                                                                                                    
                                                                                                    
                                                                                                    
                                                                                                    
                                                                                                    
                                                                                                    
                                                                                                    
                                                                                                    
                                                                                                    
                                                                                                    
                                                                                                    
                                                                                                    
                                                                                                    
                                                                                                    
                                                                                                    
                                                                                                    
                                                                                                    
                                                                                                    
                                                                                                    
                                                                                                    
                           
<?xpacket end="w"?></metadata>
<defs>
    <style>
      .cls-1 {
        fill: #f55259;
        fill-rule: evenodd;
      }
    </style>
  </defs>
  <path id="Rectangle_1176_copy_26" data-name="Rectangle 1176 copy 26" class="cls-1" d="M615.309,2221.35h3.264v1.99h-3.264v-1.99Zm-0.6,3.18h4.46a0.591,0.591,0,0,0,.6-0.59v-3.19a0.6,0.6,0,0,0-.6-0.6h-4.46a0.6,0.6,0,0,0-.6.6v3.19a0.591,0.591,0,0,0,.6.59m0.6,2.55h3.264v1.99h-3.264v-1.99Zm-0.6,3.19h4.46a0.6,0.6,0,0,0,.6-0.6v-3.19a0.591,0.591,0,0,0-.6-0.59h-4.46a0.591,0.591,0,0,0-.6.59v3.19a0.6,0.6,0,0,0,.6.6m-9.555,3.9h-8.918a0.6,0.6,0,1,0,0,1.19h8.918a0.6,0.6,0,1,0,0-1.19m-7.644,2.55h-1.274a0.591,0.591,0,0,0-.6.59,0.6,0.6,0,0,0,.6.6h1.274a0.6,0.6,0,0,0,.6-0.6,0.591,0.591,0,0,0-.6-0.59m5.1,0H600.06a0.591,0.591,0,0,0-.6.59,0.6,0.6,0,0,0,.6.6h2.548a0.6,0.6,0,0,0,.6-0.6,0.591,0.591,0,0,0-.6-0.59m27.431,8.24a1.314,1.314,0,0,1-1.313,1.31h-19.11a1.316,1.316,0,0,1-1.315-1.31v-10.83a1.318,1.318,0,0,1,1.315-1.32,0.591,0.591,0,0,0,.6-0.59v-2.38l1.528,1.52v0.01l1.274,1.27a0.6,0.6,0,0,0,.423.17h15.288a1.317,1.317,0,0,1,1.313,1.32v10.83Zm-30.019-13.34v-0.82a0.665,0.665,0,0,1,.513-0.65l1.583-.4a0.6,0.6,0,0,0,.452-0.58v-0.95a0.61,0.61,0,0,0-.3-0.52,0.662,0.662,0,0,1-.34-0.58v-2.55a0.674,0.674,0,0,1,.677-0.67h1.951v3.22a0.661,0.661,0,0,1-.341.58,0.611,0.611,0,0,0-.3.52v0.95a0.6,0.6,0,0,0,.452.58l1.584,0.4a0.665,0.665,0,0,1,.512.65v0.82h-6.45Zm10.018-3.65a0.6,0.6,0,0,0-1.02.42v3.23h-1.353v-0.82a1.864,1.864,0,0,0-1.418-1.81l-1.13-.28v-0.19a1.867,1.867,0,0,0,.636-1.4v-3.82a0.6,0.6,0,0,0-.6-0.6h-2.548a1.873,1.873,0,0,0-1.871,1.87v2.55a1.864,1.864,0,0,0,.637,1.4v0.19l-1.131.28a1.864,1.864,0,0,0-1.417,1.81v0.82h-1.991v-10.27h14.731v8.15Zm-15.074,11.29a0.674,0.674,0,0,1-.677-0.67V2218.8h26.834v12.82h-7.436l-0.924-.92v-9.95a0.6,0.6,0,0,0-.6-0.6H596.238a0.6,0.6,0,0,0-.6.6v11.47a0.591,0.591,0,0,0,.6.59H607.48a2.53,2.53,0,0,0-.373,1.32v5.13H594.964Zm0-23.01h0.677v1.36h-1.354v-0.68a0.683,0.683,0,0,1,.677-0.68m1.871,0h16.642v1.36H596.835v-1.36Zm17.836,0h1.354v1.36h-1.354v-1.36Zm2.549,0h1.353v1.36H617.22v-1.36Zm3.9,0.68v0.68h-1.353v-1.36h0.676a0.682,0.682,0,0,1,.677.68m7.605,14.69h-6.41v-14.69a1.874,1.874,0,0,0-1.872-1.87h-25.48a1.873,1.873,0,0,0-1.871,1.87v21.66a1.873,1.873,0,0,0,1.871,1.87h12.143v4.5a2.515,2.515,0,0,0,2.509,2.51h19.11a2.515,2.515,0,0,0,2.508-2.51v-10.83a2.509,2.509,0,0,0-2.508-2.51m-5.694,10.79a0.041,0.041,0,0,1-.039.04h-7.644a0.041,0.041,0,0,1-.04-0.04v-2.39l3.7,1.05a0.462,0.462,0,0,0,.164.03,0.47,0.47,0,0,0,.164-0.03l3.7-1.05v2.39Zm-3.861-6.39,6.744,1.93-6.744,1.93-6.745-1.93Zm8.268,1.12-8.1-2.31a0.609,0.609,0,0,0-.328,0l-8.1,2.31a0.843,0.843,0,0,0,0,1.62l3.212,0.91v2.74a1.233,1.233,0,0,0,1.235,1.23h7.644a1.233,1.233,0,0,0,1.234-1.23v-2.74l1.348-.38,0,3.12a0.6,0.6,0,0,0,.6.6h0a0.6,0.6,0,0,0,.6-0.6l-0.006-3.46,0.67-.19a0.843,0.843,0,0,0,0-1.62m-1.261,6.58a0.6,0.6,0,1,1-.6.6,0.6,0.6,0,0,1,.6-0.6" transform="translate(-593.094 -2215.06)"/>
</svg>
