<svg xmlns="http://www.w3.org/2000/svg" width="38.156" height="29.22" viewBox="0 0 38.156 29.22">
  <metadata><?xpacket begin="﻿" id="W5M0MpCehiHzreSzNTczkc9d"?>
<x:xmpmeta xmlns:x="adobe:ns:meta/" x:xmptk="Adobe XMP Core 5.6-c138 79.159824, 2016/09/14-01:09:01        ">
   <rdf:RDF xmlns:rdf="http://www.w3.org/1999/02/22-rdf-syntax-ns#">
      <rdf:Description rdf:about=""/>
   </rdf:RDF>
</x:xmpmeta>
                                                                                                    
                                                                                                    
                                                                                                    
                                                                                                    
                                                                                                    
                                                                                                    
                                                                                                    
                                                                                                    
                                                                                                    
                                                                                                    
                                                                                                    
                                                                                                    
                                                                                                    
                                                                                                    
                                                                                                    
                                                                                                    
                                                                                                    
                                                                                                    
                                                                                                    
                                                                                                    
                           
<?xpacket end="w"?></metadata>
<defs>
    <style>
      .cls-1 {
        fill: #f55259;
        fill-rule: evenodd;
      }
    </style>
  </defs>
  <path id="Rectangle_1176_copy_47" data-name="Rectangle 1176 copy 47" class="cls-1" d="M629.061,2351.75a0.041,0.041,0,0,1-.04.04H593.348a0.041,0.041,0,0,1-.039-0.04v-1.27a0.041,0.041,0,0,1,.039-0.04h35.673a0.041,0.041,0,0,1,.04.04v1.27Zm-29.382-3.86h2.627v1.35h-2.627v-1.35Zm-5.1-1.87v-0.68H607.4v0.68a0.683,0.683,0,0,1-.677.68H595.26a0.682,0.682,0,0,1-.677-0.68m0.677-8.32h11.466a0.676,0.676,0,0,1,.677.68v5.77h-12.82v-5.77a0.676,0.676,0,0,1,.677-0.68m15.885,10.19h9v1.35h-9v-1.35Zm1.274-2.55h6.45v1.36h-6.45v-1.36Zm-1.274-2.55h7.724v1.36h-7.724v-1.36Zm1.274-2.54H617.6v1.35h-5.176v-1.35Zm16.6,8.99H627.1v-1.42a5.019,5.019,0,0,0,2.979-1.44,0.6,0.6,0,1,0-.845-0.85,3.862,3.862,0,1,1-5.462-5.46,0.592,0.592,0,0,0,0-.84,0.585,0.585,0,0,0-.844,0,5.049,5.049,0,0,0,2.978,8.59v1.42h-4.571v-1.95a0.591,0.591,0,0,0-.6-0.59h-0.677v-4.5a0.6,0.6,0,0,0-.6-0.6h-0.677v-1.95a0.6,0.6,0,0,0-.6-0.6h-6.37a0.6,0.6,0,0,0-.6.6v1.95h-0.676a0.6,0.6,0,0,0-.6.6v2.55a0.591,0.591,0,0,0,.6.59h0.676v1.36h-0.676a0.591,0.591,0,0,0-.6.59v1.95H603.5v-1.35h3.225a1.873,1.873,0,0,0,1.871-1.87v-7.64a1.875,1.875,0,0,0-1.871-1.88H595.26a1.876,1.876,0,0,0-1.872,1.88v7.64a1.874,1.874,0,0,0,1.872,1.87h3.225v1.35h-5.137a1.241,1.241,0,0,0-1.234,1.24v1.27a1.241,1.241,0,0,0,1.234,1.24H595.8l-2.4,12.02a0.6,0.6,0,0,0,.468.71c0.04,0,.079.01,0.118,0.01a0.6,0.6,0,0,0,.585-0.48l2.452-12.26h28.323l2.453,12.26a0.6,0.6,0,0,0,.585.48c0.038,0,.078-0.01.118-0.01a0.6,0.6,0,0,0,.468-0.71l-2.4-12.02h2.456a1.241,1.241,0,0,0,1.235-1.24v-1.27a1.241,1.241,0,0,0-1.235-1.24m-2.516-8.39a1.95,1.95,0,1,1-1.951,1.95,1.956,1.956,0,0,1,1.951-1.95m0,5.1a3.145,3.145,0,1,0-3.145-3.15,3.149,3.149,0,0,0,3.145,3.15" transform="translate(-592.125 -2336.5)"/>
</svg>
