<?xml version="1.0" encoding="iso-8859-1"?>
<!-- Generator: Adobe Illustrator 16.0.0, SVG Export Plug-In . SVG Version: 6.00 Build 0)  -->
<!DOCTYPE svg PUBLIC "-//W3C//DTD SVG 1.1//EN" "http://www.w3.org/Graphics/SVG/1.1/DTD/svg11.dtd">
<svg version="1.1" id="Capa_1" xmlns="http://www.w3.org/2000/svg" xmlns:xlink="http://www.w3.org/1999/xlink" x="0px" y="0px"
	 width="974.8px" height="974.8px" viewBox="0 0 974.8 974.8" style="enable-background:new 0 0 974.8 974.8;" xml:space="preserve"
	>
<g>
	<g>
		<path d="M257.768,481h459.101c-7.6-42-44.4-73.9-88.6-73.9H346.368C302.167,407.1,265.368,439,257.768,481z"/>
		<circle cx="487.368" cy="187.1" r="187.1"/>
		<path d="M825.368,949.8V903h-671.5v46.8c0,13.8,11.2,25,25,25h621.5C814.168,974.8,825.368,963.6,825.368,949.8z"/>
		<path d="M847.368,537.6c0.9-14.399-10.5-26.6-24.9-26.6h-670.1c-14.6,0-26.1,12.4-24.9,27l26.4,335h671.5L847.368,537.6z"/>
	</g>
</g>
<g>
</g>
<g>
</g>
<g>
</g>
<g>
</g>
<g>
</g>
<g>
</g>
<g>
</g>
<g>
</g>
<g>
</g>
<g>
</g>
<g>
</g>
<g>
</g>
<g>
</g>
<g>
</g>
<g>
</g>
</svg>
